PathFileType	4	(X/Y/Z)	C:/Users/opensim2020/Desktop/walking_exp_matlab/subject01_walking05_straight_04.trc																																																																																																																															
DataRate	CameraRate	NumFrames	NumMarkers	Units	OrigDataRate	OrigDataStartFrame	OrigNumFrames																																																																																																																											
100	100	4	43	mm	100	2810	283																																																																																																																											
Frame#	Time	LFHD			RFHD			LBHD			RBHD			C7			T10			CLAV			STRN			RBAK			LSHO			LUPA			LELB			LFRM			LWRA			LWRB			LFIN			RSHO			RUPA			RELB			RFRM			RWRA			RWRB			RFIN			LASI			RASI			LPSI			RPSI			LTHI			LKNE			LTIB			LANK			LHEE			LTOE			RTHI			RKNE			RTIB			RANK			RHEE			RTOE			*39			*40			*41			*42		
		X1	Y1	Z1	X2	Y2	Z2	X3	Y3	Z3	X4	Y4	Z4	X5	Y5	Z5	X6	Y6	Z6	X7	Y7	Z7	X8	Y8	Z8	X9	Y9	Z9	X10	Y10	Z10	X11	Y11	Z11	X12	Y12	Z12	X13	Y13	Z13	X14	Y14	Z14	X15	Y15	Z15	X16	Y16	Z16	X17	Y17	Z17	X18	Y18	Z18	X19	Y19	Z19	X20	Y20	Z20	X21	Y21	Z21	X22	Y22	Z22	X23	Y23	Z23	X24	Y24	Z24	X25	Y25	Z25	X26	Y26	Z26	X27	Y27	Z27	X28	Y28	Z28	X29	Y29	Z29	X30	Y30	Z30	X31	Y31	Z31	X32	Y32	Z32	X33	Y33	Z33	X34	Y34	Z34	X35	Y35	Z35	X36	Y36	Z36	X37	Y37	Z37	X38	Y38	Z38	X39	Y39	Z39	X40	Y40	Z40	X41	Y41	Z41	X42	Y42	Z42	X43	Y43	Z43
																																																																																																																																		
36	0.35	-1157.10779	1680.6665	-1475.58093	-1135.09094	1683.70215	-1363.82251	-1270.34314	1629.93054	-1459.34741	-1251.35986	1631.84436	-1341.08093	-1294.97534	1435.39661	-1422.78845	-1325.74023	1143.43262	-1422.09924	-1149.71277	1372.00464	-1435.48486	-1103.01099	1219.37451	-1450.59558	-1340.33435	1237.42676	-1348.94043	-1228.11243	1406.05872	-1588.63562	-1266.53967	1230.90918	-1682.16614	-1273.18347	1078.1073	-1701.27734	-1196.54236	993.52136	-1739.21533	-1074.22205	926.63397	-1738.45007	-1123.427	897.23865	-1756.81079	-1051.86389	861.65588	-1780.9845	-1205.71362	1392.60486	-1279.74341	-1264.71582	1190.26831	-1182.50244	-1270.20679	1067.4729	-1184.1499	-1259.64832	949.0387	-1153.98792	-1200.09705	819.90088	-1174.60168	-1242.26953	829.20776	-1132.96143	-1221.79333	744.0788	-1139.8916	-1168.23254	932.85724	-1545.31958	-1139.67004	942.09314	-1333.08765	-1346.04761	952.58759	-1470.1228	-1325.55518	958.81982	-1325.95117	-1225.01733	600.72156	-1613.83264	-1253.70691	469.04453	-1611.38989	-1406.14197	360.68286	-1605.82373	-1559.56458	207.86162	-1548.88989	-1593.68677	222.66397	-1487.5498	-1521.51807	63.97329	-1557.95386	-1154.35242	611.29382	-1276.0509	-1123.56812	456.94012	-1310.84351	-1158.0481	283.15826	-1306.59521	-1164.93311	79.17268	-1362.12659	-1214.61658	40.08591	-1410.42944	-1023.68146	43.6218	-1375.99377	-1150.24792	1717.41785	-1383.74011	-1973.10474	1023.38922	3101.92969	-2012.51929	1022.01544	3140.64209	NaN	NaN	NaN
37	0.36	-1147.98389	1681.48523	-1473.76721	-1126.25342	1684.04504	-1361.81848	-1261.23401	1630.73853	-1457.78784	-1242.48755	1632.29749	-1339.59363	-1285.53784	1436.11108	-1421.90442	-1316.71704	1144.05066	-1421.16931	-1140.51233	1372.51709	-1434.61914	-1094.01074	1219.69165	-1449.64282	-1331.32043	1238.22424	-1347.81873	-1218.63269	1406.65222	-1587.79944	-1258.24988	1231.64551	-1681.09448	-1266.3894	1078.61108	-1699.40662	-1191.82117	992.06055	-1736.89429	-1070.9624	922.26953	-1735.58398	-1120.86414	894.12354	-1754.09265	-1050.13745	856.55768	-1777.62769	-1196.35022	1392.83362	-1278.89966	-1253.5874	1190.19446	-1181.21899	-1258.3761	1067.08264	-1183.09692	-1245.95374	948.67822	-1153.3512	-1184.32263	820.68695	-1174.65308	-1226.85327	829.19305	-1132.44043	-1204.67749	744.32574	-1139.97302	-1159.12292	933.32489	-1544.42517	-1131.27661	942.30524	-1331.82642	-1337.26611	952.34955	-1469.67126	-1317.32751	959.09399	-1325.42456	-1209.09485	601.17084	-1613.75757	-1234.94971	468.69077	-1611.28442	-1387.06384	360.80212	-1607.25891	-1543.40393	213.02361	-1548.64783	-1577.63611	228.12653	-1487.05261	-1506.19238	68.11465	-1557.8158	-1149.08557	610.79858	-1275.35388	-1120.20325	456.53619	-1309.82605	-1156.19739	282.69611	-1306.07031	-1164.69666	79.14397	-1362.13452	-1214.41687	40.88315	-1409.91394	-1023.54681	43.33573	-1375.92102	-1141.21826	1717.93457	-1381.6615	-1972.9342	1023.74933	3102.00024	-2012.53821	1021.99335	3140.74292	NaN	NaN	NaN
38	0.37	-1138.77698	1682.16589	-1472.07056	-1117.20923	1684.3302	-1360.12537	-1252.12244	1631.55554	-1456.41443	-1233.60046	1632.7738	-1338.28369	-1276.16357	1436.83167	-1421.07129	-1307.8512	1144.71045	-1420.30164	-1131.32031	1372.90552	-1433.73767	-1084.99707	1220.02368	-1448.78516	-1322.42993	1238.93213	-1346.83252	-1209.24548	1407.15161	-1587.01648	-1250.11682	1232.22961	-1679.91772	-1259.40295	1079.13074	-1697.70691	-1187.02405	990.6181	-1734.63989	-1067.92285	917.76447	-1732.62415	-1118.53174	890.94635	-1751.32507	-1048.58875	851.13147	-1774.06116	-1186.98938	1393.07666	-1278.11682	-1242.35583	1190.0437	-1179.80994	-1246.56104	1066.79846	-1181.99011	-1232.06152	948.37054	-1152.63086	-1168.38611	821.42188	-1174.56689	-1210.65491	829.18652	-1132.48975	-1186.90979	744.71588	-1139.95349	-1149.93408	933.72772	-1543.58691	-1123.04675	942.3891	-1330.42334	-1328.55127	951.98724	-1469.21094	-1309.22644	959.12158	-1324.97107	-1193.59033	601.71552	-1613.27112	-1216.32324	468.98157	-1611.06897	-1367.89685	361.12112	-1608.15515	-1526.59155	217.41957	-1548.03186	-1560.76025	232.34532	-1486.17285	-1492.45105	73.40231	-1560.3324	-1144.42432	610.81287	-1274.40845	-1116.93604	455.99976	-1309.16614	-1154.49158	282.66138	-1305.70056	-1164.55237	79.13219	-1362.09521	-1214.39429	40.98016	-1409.87378	-1023.3858	43.0683	-1375.88281	-1132.04456	1718.40063	-1379.90979	-1973.1427	1023.42084	3102.07983	-2012.57422	1022.10632	3140.55347	NaN	NaN	NaN
39	0.38	-1129.48279	1682.7699	-1470.5957	-1107.99597	1684.73657	-1358.68079	-1242.9314	1632.26575	-1455.26355	-1224.48694	1633.24878	-1336.91309	-1266.92639	1437.46167	-1420.25659	-1299.14063	1145.31079	-1419.36987	-1122.18909	1373.24341	-1433.0907	-1076.12976	1220.22717	-1447.93555	-1313.68726	1239.63745	-1346.02551	-1199.94751	1407.65186	-1586.28613	-1242.06787	1232.599	-1678.55042	-1252.32788	1079.69214	-1696.13965	-1182.22729	989.28271	-1732.41223	-1065.16541	913.18726	-1729.6134	-1116.4165	887.67096	-1748.41125	-1047.41895	845.6629	-1770.41113	-1177.60376	1393.36597	-1277.3999	-1231.03943	1189.87939	-1178.60071	-1234.52551	1066.36731	-1180.89697	-1218.04651	948.10193	-1151.91394	-1152.09119	822.43774	-1174.36829	-1194.35425	829.14813	-1132.01709	-1169.06921	745.3941	-1139.97095	-1140.901	934.23981	-1542.67798	-1114.87927	942.55487	-1329.17151	-1319.93201	951.65649	-1468.84814	-1301.33374	958.94635	-1324.64001	-1178.4375	602.72882	-1612.94031	-1197.62756	469.97934	-1610.86975	-1348.45386	361.39813	-1608.33301	-1508.91235	220.85361	-1547.1947	-1543.10352	235.57448	-1485.07056	-1473.99377	76.49032	-1560.776	-1139.09521	610.6084	-1274.08228	-1113.62036	455.5878	-1308.58887	-1153.06946	282.76608	-1305.43958	-1164.42712	79.0752	-1362.0968	-1214.39978	41.07256	-1409.87146	-1023.19226	42.76417	-1375.96875	-1122.82471	1718.82825	-1378.31152	-1973.11328	1023.42365	3101.91528	-2012.57825	1022.09271	3140.62988	NaN	NaN	NaN
